solid Untitled-58ef73fc
facet normal -0.0 1.0 -0.0
  outer loop
    vertex 0.0 89.99999999999999 15.0
    vertex 90.0 89.99999999999999 -3.524958103184872e-16
    vertex 0.0 89.99999999999999 -3.524958103184872e-16
  endloop
endfacet
facet normal -0.0 1.0 -0.0
  outer loop
    vertex 90.0 89.99999999999999 -3.524958103184872e-16
    vertex 0.0 89.99999999999999 15.0
    vertex 90.0 89.99999999999999 15.0
  endloop
endfacet
facet normal 1.0 -0.0 -0.0
  outer loop
    vertex 90.0 0.0 -3.524958103184872e-16
    vertex 90.0 4.000000000000001 4.999999999999994
    vertex 90.0 0.0 15.0
  endloop
endfacet
facet normal 1.0 -0.0 -0.0
  outer loop
    vertex 90.0 4.000000000000001 4.999999999999994
    vertex 90.0 0.0 -3.524958103184872e-16
    vertex 90.0 15.0 0.999999999999995
  endloop
endfacet
facet normal 1.0 -0.0 -0.0
  outer loop
    vertex 90.0 15.0 0.999999999999995
    vertex 90.0 0.0 -3.524958103184872e-16
    vertex 90.0 89.99999999999999 -3.524958103184872e-16
  endloop
endfacet
facet normal 1.0 -0.0 -0.0
  outer loop
    vertex 90.0 0.0 15.0
    vertex 90.0 4.000000000000001 4.999999999999994
    vertex 90.0 3.999999999999997 9.0
  endloop
endfacet
facet normal 1.0 -0.0 -0.0
  outer loop
    vertex 90.0 15.0 0.999999999999995
    vertex 90.0 89.99999999999999 -3.524958103184872e-16
    vertex 90.0 74.99999999999997 0.999999999999995
  endloop
endfacet
facet normal 1.0 -0.0 -0.0
  outer loop
    vertex 90.0 74.99999999999997 0.999999999999995
    vertex 90.0 89.99999999999999 -3.524958103184872e-16
    vertex 90.0 74.99999999999997 4.999999999999995
  endloop
endfacet
facet normal 1.0 -0.0 -0.0
  outer loop
    vertex 90.0 74.99999999999997 4.999999999999995
    vertex 90.0 89.99999999999999 -3.524958103184872e-16
    vertex 90.0 85.99999999999997 4.999999999999998
  endloop
endfacet
facet normal 1.0 -0.0 -0.0
  outer loop
    vertex 90.0 85.99999999999997 4.999999999999998
    vertex 90.0 89.99999999999999 -3.524958103184872e-16
    vertex 90.0 85.99999999999997 6.0
  endloop
endfacet
facet normal 1.0 -0.0 -0.0
  outer loop
    vertex 90.0 85.99999999999997 6.0
    vertex 90.0 89.99999999999999 -3.524958103184872e-16
    vertex 90.0 85.99999999999997 9.0
  endloop
endfacet
facet normal 1.0 -0.0 -0.0
  outer loop
    vertex 90.0 85.99999999999997 9.0
    vertex 90.0 89.99999999999999 -3.524958103184872e-16
    vertex 90.0 85.99999999999997 12.0
  endloop
endfacet
facet normal 1.0 -0.0 -0.0
  outer loop
    vertex 90.0 85.99999999999997 12.0
    vertex 90.0 89.99999999999999 -3.524958103184872e-16
    vertex 90.0 85.99999999999997 15.0
  endloop
endfacet
facet normal 1.0 -0.0 -0.0
  outer loop
    vertex 90.0 85.99999999999997 15.0
    vertex 90.0 89.99999999999999 -3.524958103184872e-16
    vertex 90.0 89.99999999999999 15.0
  endloop
endfacet
facet normal 1.0 -0.0 -0.0
  outer loop
    vertex 90.0 85.99999999999997 15.0
    vertex 90.0 82.99999999999999 12.0
    vertex 90.0 85.99999999999997 12.0
  endloop
endfacet
facet normal 1.0 -0.0 -0.0
  outer loop
    vertex 90.0 85.99999999999997 6.0
    vertex 90.0 82.99999999999999 9.0
    vertex 90.0 82.99999999999999 6.0
  endloop
endfacet
facet normal 1.0 -0.0 -0.0
  outer loop
    vertex 90.0 82.99999999999999 9.0
    vertex 90.0 85.99999999999997 6.0
    vertex 90.0 85.99999999999997 9.0
  endloop
endfacet
facet normal 1.0 -0.0 -0.0
  outer loop
    vertex 90.0 15.0 4.999999999999995
    vertex 90.0 4.000000000000001 4.999999999999994
    vertex 90.0 15.0 0.999999999999995
  endloop
endfacet
facet normal 1.0 -0.0 -0.0
  outer loop
    vertex 90.0 3.999999999999997 9.0
    vertex 90.0 4.000000000000001 5.9999999999999964
    vertex 90.0 6.999999999999997 9.0
  endloop
endfacet
facet normal 1.0 -0.0 -0.0
  outer loop
    vertex 90.0 4.000000000000001 5.9999999999999964
    vertex 90.0 3.999999999999997 9.0
    vertex 90.0 4.000000000000001 4.999999999999994
  endloop
endfacet
facet normal 1.0 -0.0 -0.0
  outer loop
    vertex 90.0 6.999999999999997 9.0
    vertex 90.0 4.000000000000001 5.9999999999999964
    vertex 90.0 7.0 6.0
  endloop
endfacet
facet normal 1.0 -0.0 -0.0
  outer loop
    vertex 90.0 3.999999999999997 9.0
    vertex 90.0 3.9999999999999996 15.0
    vertex 90.0 0.0 15.0
  endloop
endfacet
facet normal 1.0 -0.0 -0.0
  outer loop
    vertex 90.0 3.9999999999999996 15.0
    vertex 90.0 3.999999999999997 9.0
    vertex 90.0 3.9999999999999982 12.0
  endloop
endfacet
facet normal 1.0 -0.0 -0.0
  outer loop
    vertex 90.0 3.9999999999999996 15.0
    vertex 90.0 3.9999999999999982 12.0
    vertex 90.0 6.999999999999998 12.0
  endloop
endfacet
facet normal 7.305612649087815e-18 -2.2559731860383186e-17 1.0
  outer loop
    vertex 3.9999999999999982 4.000000000000001 4.999999999999994
    vertex 65.0 14.999999999999995 4.999999999999998
    vertex 3.9999999999999982 85.99999999999997 4.999999999999998
  endloop
endfacet
facet normal 7.305612649087815e-18 -2.2559731860383186e-17 1.0
  outer loop
    vertex 65.0 14.999999999999995 4.999999999999998
    vertex 3.9999999999999982 4.000000000000001 4.999999999999994
    vertex 90.0 4.000000000000001 4.999999999999994
  endloop
endfacet
facet normal 7.305612649087815e-18 -2.2559731860383186e-17 1.0
  outer loop
    vertex 65.0 14.999999999999995 4.999999999999998
    vertex 90.0 4.000000000000001 4.999999999999994
    vertex 90.0 15.0 4.999999999999995
  endloop
endfacet
facet normal 7.305612649087815e-18 -2.2559731860383186e-17 1.0
  outer loop
    vertex 3.9999999999999982 85.99999999999997 4.999999999999998
    vertex 65.0 74.99999999999997 4.999999999999998
    vertex 90.0 85.99999999999997 4.999999999999998
  endloop
endfacet
facet normal 7.305612649087815e-18 -2.2559731860383186e-17 1.0
  outer loop
    vertex 65.0 74.99999999999997 4.999999999999998
    vertex 3.9999999999999982 85.99999999999997 4.999999999999998
    vertex 65.0 14.999999999999995 4.999999999999998
  endloop
endfacet
facet normal 7.305612649087815e-18 -2.2559731860383186e-17 1.0
  outer loop
    vertex 90.0 85.99999999999997 4.999999999999998
    vertex 65.0 74.99999999999997 4.999999999999998
    vertex 90.0 74.99999999999997 4.999999999999995
  endloop
endfacet
facet normal -0.0 -0.0 1.0
  outer loop
    vertex 0.0 0.0 15.0
    vertex 3.9999999999999982 3.9999999999999996 15.0
    vertex 0.0 89.99999999999999 15.0
  endloop
endfacet
facet normal -0.0 -0.0 1.0
  outer loop
    vertex 3.9999999999999982 3.9999999999999996 15.0
    vertex 0.0 0.0 15.0
    vertex 90.0 0.0 15.0
  endloop
endfacet
facet normal -0.0 -0.0 1.0
  outer loop
    vertex 3.9999999999999982 3.9999999999999996 15.0
    vertex 90.0 0.0 15.0
    vertex 90.0 3.9999999999999996 15.0
  endloop
endfacet
facet normal -0.0 -0.0 1.0
  outer loop
    vertex 0.0 89.99999999999999 15.0
    vertex 3.9999999999999982 85.99999999999997 15.0
    vertex 90.0 89.99999999999999 15.0
  endloop
endfacet
facet normal -0.0 -0.0 1.0
  outer loop
    vertex 3.9999999999999982 85.99999999999997 15.0
    vertex 0.0 89.99999999999999 15.0
    vertex 3.9999999999999982 3.9999999999999996 15.0
  endloop
endfacet
facet normal -0.0 -0.0 1.0
  outer loop
    vertex 90.0 89.99999999999999 15.0
    vertex 3.9999999999999982 85.99999999999997 15.0
    vertex 90.0 85.99999999999997 15.0
  endloop
endfacet
facet normal 0.7071067811865476 -0.0 0.7071067811865476
  outer loop
    vertex 6.999999999999998 6.999999999999998 12.0
    vertex 3.9999999999999982 85.99999999999997 15.0
    vertex 3.9999999999999982 3.9999999999999996 15.0
  endloop
endfacet
facet normal 0.7071067811865476 -0.0 0.7071067811865476
  outer loop
    vertex 3.9999999999999982 85.99999999999997 15.0
    vertex 6.999999999999998 6.999999999999998 12.0
    vertex 6.999999999999998 82.99999999999999 12.0
  endloop
endfacet
facet normal 6.205080160708746e-20 -0.7071067811865481 0.7071067811865469
  outer loop
    vertex 90.0 85.99999999999997 15.0
    vertex 6.999999999999998 82.99999999999999 12.0
    vertex 90.0 82.99999999999999 12.0
  endloop
endfacet
facet normal 6.205080160708746e-20 -0.7071067811865481 0.7071067811865469
  outer loop
    vertex 6.999999999999998 82.99999999999999 12.0
    vertex 90.0 85.99999999999997 15.0
    vertex 3.9999999999999982 85.99999999999997 15.0
  endloop
endfacet
facet normal -1.8615240482126228e-19 0.7071067811865477 0.7071067811865475
  outer loop
    vertex 3.9999999999999982 3.9999999999999996 15.0
    vertex 90.0 6.999999999999998 12.0
    vertex 6.999999999999998 6.999999999999998 12.0
  endloop
endfacet
facet normal -1.8615240482126228e-19 0.7071067811865477 0.7071067811865475
  outer loop
    vertex 90.0 6.999999999999998 12.0
    vertex 3.9999999999999982 3.9999999999999996 15.0
    vertex 90.0 3.9999999999999996 15.0
  endloop
endfacet
facet normal -1.6588038132634686e-17 1.0 1.4099832412739454e-15
  outer loop
    vertex 3.9999999999999982 3.9999999999999982 5.9999999999999964
    vertex 90.0 4.000000000000001 4.999999999999994
    vertex 3.9999999999999982 4.000000000000001 4.999999999999994
  endloop
endfacet
facet normal -1.6588038132634686e-17 1.0 1.4099832412739454e-15
  outer loop
    vertex 90.0 4.000000000000001 4.999999999999994
    vertex 3.9999999999999982 3.9999999999999982 5.9999999999999964
    vertex 90.0 4.000000000000001 5.9999999999999964
  endloop
endfacet
facet normal -4.717989348393556e-32 1.4099832412739491e-15 -1.0
  outer loop
    vertex 6.999999999999998 6.999999999999997 6.0
    vertex 3.9999999999999982 3.9999999999999982 5.9999999999999964
    vertex 3.9999999999999982 6.999999999999997 6.0
  endloop
endfacet
facet normal -4.717989348393556e-32 1.4099832412739491e-15 -1.0
  outer loop
    vertex 3.9999999999999982 3.9999999999999982 5.9999999999999964
    vertex 6.999999999999998 6.999999999999997 6.0
    vertex 90.0 4.000000000000001 5.9999999999999964
  endloop
endfacet
facet normal -4.717989348393556e-32 1.4099832412739491e-15 -1.0
  outer loop
    vertex 90.0 4.000000000000001 5.9999999999999964
    vertex 6.999999999999998 6.999999999999997 6.0
    vertex 90.0 7.0 6.0
  endloop
endfacet
facet normal 1.0 0.0 0.0
  outer loop
    vertex 3.9999999999999982 4.000000000000001 4.999999999999994
    vertex 3.9999999999999982 6.999999999999997 6.0
    vertex 3.9999999999999982 3.9999999999999982 5.9999999999999964
  endloop
endfacet
facet normal 1.0 0.0 0.0
  outer loop
    vertex 3.9999999999999982 6.999999999999997 6.0
    vertex 3.9999999999999982 4.000000000000001 4.999999999999994
    vertex 3.9999999999999982 85.99999999999997 4.999999999999998
  endloop
endfacet
facet normal 1.0 0.0 0.0
  outer loop
    vertex 3.9999999999999982 6.999999999999997 6.0
    vertex 3.9999999999999982 85.99999999999997 4.999999999999998
    vertex 3.9999999999999982 85.99999999999997 6.0
  endloop
endfacet
facet normal 0.0 0.0 -1.0
  outer loop
    vertex 6.999999999999998 85.99999999999997 6.0
    vertex 3.9999999999999982 6.999999999999997 6.0
    vertex 3.9999999999999982 85.99999999999997 6.0
  endloop
endfacet
facet normal 0.0 0.0 -1.0
  outer loop
    vertex 3.9999999999999982 6.999999999999997 6.0
    vertex 6.999999999999998 85.99999999999997 6.0
    vertex 6.999999999999998 6.999999999999997 6.0
  endloop
endfacet
facet normal 0.0 0.0 -1.0
  outer loop
    vertex 6.999999999999998 6.999999999999997 6.0
    vertex 6.999999999999998 85.99999999999997 6.0
    vertex 6.999999999999998 82.99999999999999 6.0
  endloop
endfacet
facet normal 0.0 -1.0 0.0
  outer loop
    vertex 90.0 85.99999999999997 6.0
    vertex 3.9999999999999982 85.99999999999997 4.999999999999998
    vertex 90.0 85.99999999999997 4.999999999999998
  endloop
endfacet
facet normal 0.0 -1.0 0.0
  outer loop
    vertex 3.9999999999999982 85.99999999999997 4.999999999999998
    vertex 90.0 85.99999999999997 6.0
    vertex 3.9999999999999982 85.99999999999997 6.0
  endloop
endfacet
facet normal 0.0 -1.0 0.0
  outer loop
    vertex 3.9999999999999982 85.99999999999997 6.0
    vertex 90.0 85.99999999999997 6.0
    vertex 6.999999999999998 85.99999999999997 6.0
  endloop
endfacet
facet normal 0.0 0.0 -1.0
  outer loop
    vertex 90.0 85.99999999999997 6.0
    vertex 6.999999999999998 82.99999999999999 6.0
    vertex 6.999999999999998 85.99999999999997 6.0
  endloop
endfacet
facet normal 0.0 0.0 -1.0
  outer loop
    vertex 6.999999999999998 82.99999999999999 6.0
    vertex 90.0 85.99999999999997 6.0
    vertex 90.0 82.99999999999999 6.0
  endloop
endfacet
facet normal 0.0 -1.0 0.0
  outer loop
    vertex 90.0 0.0 15.0
    vertex 0.0 0.0 -3.524958103184872e-16
    vertex 90.0 0.0 -3.524958103184872e-16
  endloop
endfacet
facet normal 0.0 -1.0 0.0
  outer loop
    vertex 0.0 0.0 -3.524958103184872e-16
    vertex 90.0 0.0 15.0
    vertex 0.0 0.0 15.0
  endloop
endfacet
facet normal 0.0 0.0 -1.0
  outer loop
    vertex 90.0 89.99999999999999 -3.524958103184872e-16
    vertex 0.0 0.0 -3.524958103184872e-16
    vertex 0.0 89.99999999999999 -3.524958103184872e-16
  endloop
endfacet
facet normal 0.0 0.0 -1.0
  outer loop
    vertex 0.0 0.0 -3.524958103184872e-16
    vertex 90.0 89.99999999999999 -3.524958103184872e-16
    vertex 90.0 0.0 -3.524958103184872e-16
  endloop
endfacet
facet normal -1.0 0.0 0.0
  outer loop
    vertex 0.0 89.99999999999999 15.0
    vertex 0.0 0.0 -3.524958103184872e-16
    vertex 0.0 0.0 15.0
  endloop
endfacet
facet normal -1.0 0.0 0.0
  outer loop
    vertex 0.0 0.0 -3.524958103184872e-16
    vertex 0.0 89.99999999999999 15.0
    vertex 0.0 89.99999999999999 -3.524958103184872e-16
  endloop
endfacet
facet normal 1.1279865930191588e-16 -3.5343159834193445e-35 1.0
  outer loop
    vertex 90.0 15.0 0.999999999999995
    vertex 65.0 74.99999999999997 0.9999999999999978
    vertex 65.0 14.999999999999995 0.9999999999999978
  endloop
endfacet
facet normal 1.1279865930191588e-16 -3.5343159834193445e-35 1.0
  outer loop
    vertex 65.0 74.99999999999997 0.9999999999999978
    vertex 90.0 15.0 0.999999999999995
    vertex 90.0 74.99999999999997 0.999999999999995
  endloop
endfacet
facet normal -3.986661044790345e-51 -1.0 -3.5343159834193445e-35
  outer loop
    vertex 90.0 74.99999999999997 4.999999999999995
    vertex 65.0 74.99999999999997 0.9999999999999978
    vertex 90.0 74.99999999999997 0.999999999999995
  endloop
endfacet
facet normal -3.986661044790345e-51 -1.0 -3.5343159834193445e-35
  outer loop
    vertex 65.0 74.99999999999997 0.9999999999999978
    vertex 90.0 74.99999999999997 4.999999999999995
    vertex 65.0 74.99999999999997 4.999999999999998
  endloop
endfacet
facet normal 1.0 -0.0 -1.1279865930191588e-16
  outer loop
    vertex 65.0 74.99999999999997 0.9999999999999978
    vertex 65.0 14.999999999999995 4.999999999999998
    vertex 65.0 14.999999999999995 0.9999999999999978
  endloop
endfacet
facet normal 1.0 -0.0 -1.1279865930191588e-16
  outer loop
    vertex 65.0 14.999999999999995 4.999999999999998
    vertex 65.0 74.99999999999997 0.9999999999999978
    vertex 65.0 74.99999999999997 4.999999999999998
  endloop
endfacet
facet normal -2.255973186038318e-16 1.0 2.548241824045359e-32
  outer loop
    vertex 65.0 14.999999999999995 0.9999999999999978
    vertex 90.0 15.0 4.999999999999995
    vertex 90.0 15.0 0.999999999999995
  endloop
endfacet
facet normal -2.255973186038318e-16 1.0 2.548241824045359e-32
  outer loop
    vertex 90.0 15.0 4.999999999999995
    vertex 65.0 14.999999999999995 0.9999999999999978
    vertex 65.0 14.999999999999995 4.999999999999998
  endloop
endfacet
facet normal -8.493874947433425e-18 1.0 2.3499720687899147e-16
  outer loop
    vertex 6.999999999999998 6.999999999999998 9.0
    vertex 90.0 7.0 6.0
    vertex 6.999999999999998 6.999999999999997 6.0
  endloop
endfacet
facet normal -8.493874947433425e-18 1.0 2.3499720687899147e-16
  outer loop
    vertex 90.0 7.0 6.0
    vertex 6.999999999999998 6.999999999999998 9.0
    vertex 90.0 6.999999999999997 9.0
  endloop
endfacet
facet normal 1.0 -0.0 -0.0
  outer loop
    vertex 6.999999999999998 82.99999999999999 6.0
    vertex 6.999999999999998 6.999999999999998 9.0
    vertex 6.999999999999998 6.999999999999997 6.0
  endloop
endfacet
facet normal 1.0 -0.0 -0.0
  outer loop
    vertex 6.999999999999998 6.999999999999998 9.0
    vertex 6.999999999999998 82.99999999999999 6.0
    vertex 6.999999999999998 82.99999999999999 9.0
  endloop
endfacet
facet normal 0.0 -1.0 0.0
  outer loop
    vertex 90.0 82.99999999999999 9.0
    vertex 6.999999999999998 82.99999999999999 6.0
    vertex 90.0 82.99999999999999 6.0
  endloop
endfacet
facet normal 0.0 -1.0 0.0
  outer loop
    vertex 6.999999999999998 82.99999999999999 6.0
    vertex 90.0 82.99999999999999 9.0
    vertex 6.999999999999998 82.99999999999999 9.0
  endloop
endfacet
facet normal 0.0 -1.0 0.0
  outer loop
    vertex 90.0 85.99999999999997 12.0
    vertex 3.9999999999999982 85.99999999999997 9.0
    vertex 90.0 85.99999999999997 9.0
  endloop
endfacet
facet normal 0.0 -1.0 0.0
  outer loop
    vertex 3.9999999999999982 85.99999999999997 9.0
    vertex 90.0 85.99999999999997 12.0
    vertex 3.9999999999999982 85.99999999999997 12.0
  endloop
endfacet
facet normal -0.0 -0.0 -1.0
  outer loop
    vertex 90.0 85.99999999999997 12.0
    vertex 3.9999999999999982 82.99999999999999 12.0
    vertex 3.9999999999999982 85.99999999999997 12.0
  endloop
endfacet
facet normal -0.0 -0.0 -1.0
  outer loop
    vertex 3.9999999999999982 82.99999999999999 12.0
    vertex 90.0 85.99999999999997 12.0
    vertex 6.999999999999998 82.99999999999999 12.0
  endloop
endfacet
facet normal -0.0 -0.0 -1.0
  outer loop
    vertex 6.999999999999998 82.99999999999999 12.0
    vertex 90.0 85.99999999999997 12.0
    vertex 90.0 82.99999999999999 12.0
  endloop
endfacet
facet normal 1.0 0.0 0.0
  outer loop
    vertex 3.9999999999999982 85.99999999999997 9.0
    vertex 3.9999999999999982 3.9999999999999982 12.0
    vertex 3.9999999999999982 3.9999999999999982 9.0
  endloop
endfacet
facet normal 1.0 0.0 0.0
  outer loop
    vertex 3.9999999999999982 3.9999999999999982 12.0
    vertex 3.9999999999999982 85.99999999999997 9.0
    vertex 3.9999999999999982 82.99999999999999 12.0
  endloop
endfacet
facet normal 1.0 0.0 0.0
  outer loop
    vertex 3.9999999999999982 82.99999999999999 12.0
    vertex 3.9999999999999982 85.99999999999997 9.0
    vertex 3.9999999999999982 85.99999999999997 12.0
  endloop
endfacet
facet normal 0.0 0.0 -1.0
  outer loop
    vertex 6.999999999999998 82.99999999999999 12.0
    vertex 3.9999999999999982 3.9999999999999982 12.0
    vertex 3.9999999999999982 82.99999999999999 12.0
  endloop
endfacet
facet normal 0.0 0.0 -1.0
  outer loop
    vertex 3.9999999999999982 3.9999999999999982 12.0
    vertex 6.999999999999998 82.99999999999999 12.0
    vertex 6.999999999999998 6.999999999999998 12.0
  endloop
endfacet
facet normal 0.0 0.0 -1.0
  outer loop
    vertex 3.9999999999999982 3.9999999999999982 12.0
    vertex 6.999999999999998 6.999999999999998 12.0
    vertex 90.0 3.9999999999999982 12.0
  endloop
endfacet
facet normal 0.0 0.0 -1.0
  outer loop
    vertex 90.0 3.9999999999999982 12.0
    vertex 6.999999999999998 6.999999999999998 12.0
    vertex 90.0 6.999999999999998 12.0
  endloop
endfacet
facet normal 8.493874947433425e-18 1.0 -2.3499720687899147e-16
  outer loop
    vertex 3.9999999999999982 3.9999999999999982 12.0
    vertex 90.0 3.999999999999997 9.0
    vertex 3.9999999999999982 3.9999999999999982 9.0
  endloop
endfacet
facet normal 8.493874947433425e-18 1.0 -2.3499720687899147e-16
  outer loop
    vertex 90.0 3.999999999999997 9.0
    vertex 3.9999999999999982 3.9999999999999982 12.0
    vertex 90.0 3.9999999999999982 12.0
  endloop
endfacet
facet normal -0.0 -0.0 1.0
  outer loop
    vertex 3.9999999999999982 3.9999999999999982 9.0
    vertex 6.999999999999998 6.999999999999998 9.0
    vertex 3.9999999999999982 85.99999999999997 9.0
  endloop
endfacet
facet normal -0.0 -0.0 1.0
  outer loop
    vertex 6.999999999999998 6.999999999999998 9.0
    vertex 3.9999999999999982 3.9999999999999982 9.0
    vertex 90.0 3.999999999999997 9.0
  endloop
endfacet
facet normal -0.0 -0.0 1.0
  outer loop
    vertex 6.999999999999998 6.999999999999998 9.0
    vertex 90.0 3.999999999999997 9.0
    vertex 90.0 6.999999999999997 9.0
  endloop
endfacet
facet normal -0.0 -0.0 1.0
  outer loop
    vertex 3.9999999999999982 85.99999999999997 9.0
    vertex 6.999999999999998 82.99999999999999 9.0
    vertex 90.0 85.99999999999997 9.0
  endloop
endfacet
facet normal -0.0 -0.0 1.0
  outer loop
    vertex 6.999999999999998 82.99999999999999 9.0
    vertex 3.9999999999999982 85.99999999999997 9.0
    vertex 6.999999999999998 6.999999999999998 9.0
  endloop
endfacet
facet normal -0.0 -0.0 1.0
  outer loop
    vertex 90.0 85.99999999999997 9.0
    vertex 6.999999999999998 82.99999999999999 9.0
    vertex 90.0 82.99999999999999 9.0
  endloop
endfacet
endsolid Untitled-58ef73fc
